<mxfile host="app.diagrams.net" modified="2023-05-31T23:48:28.998Z" agent="Mozilla/5.0 (Windows NT 10.0; Win64; x64) AppleWebKit/537.36 (KHTML, like Gecko) Chrome/113.0.0.0 Safari/537.36" version="21.3.6" etag="NkoU7-JAts_d502WcIbf" type="github">
  <diagram name="PÃ¡gina-1" id="rCRu4SVnPn98-kidlmAy">
    <mxGraphModel>
      <root>
        <mxCell id="0" />
        <mxCell id="1" parent="0" />
      </root>
    </mxGraphModel>
  </diagram>
</mxfile>
